<?xml version="1.0" standalone="yes"?>

<svg version="1.1" width="32" height="32" viewBox="0.0 0.0 37.79527559055118 37.79527559055118" fill="none"
     stroke="none" stroke-linecap="square" stroke-miterlimit="10" xmlns="http://www.w3.org/2000/svg"
     xmlns:xlink="http://www.w3.org/1999/xlink">
    <clipPath id="p.0">
        <path d="m0 0l37.795277 0l0 37.795277l-37.795277 0l0 -37.795277z" clip-rule="nonzero"></path>
    </clipPath>
    <g clip-path="url(#p.0)">
        <path fill="#000000" fill-opacity="0.0" d="m0 0l37.795277 0l0 37.795277l-37.795277 0z"
              fill-rule="evenodd"></path>
        <path fill="#ffffff"
              d="m16.72441 1.6462388l1.3015366 0.86502075l0 0c8.746798 5.8132567 11.123331 17.615469 5.308136 26.36098l0 0l3.3334255 2.2154465l-10.714751 5.0152473l0.47852993 -11.8183975l3.3334255 2.2154465l0 0l0 0c4.5045967 -6.7744923 2.6636734 -15.916782 -4.1118155 -20.419878l-1.3015356 -0.8650203z"
              fill-rule="evenodd"></path>
        <path stroke="#000000" stroke-width="2.0" stroke-linejoin="round" stroke-linecap="butt"
              d="m16.72441 1.6462388l1.3015366 0.86502075l0 0c8.746798 5.8132567 11.123331 17.615469 5.308136 26.36098l0 0l3.3334255 2.2154465l-10.714751 5.0152473l0.47852993 -11.8183975l3.3334255 2.2154465l0 0l0 0c4.5045967 -6.7744923 2.6636734 -15.916782 -4.1118155 -20.419878l-1.3015356 -0.8650203z"
              fill-rule="evenodd"></path>
    </g>
</svg>

