<?xml version="1.0" standalone="yes"?>

<svg version="1.1" height="24" width="24" viewBox="0.0 0.0 37.79527559055118 37.79527559055118" fill="none"
     stroke="none" stroke-linecap="square" stroke-miterlimit="10" xmlns="http://www.w3.org/2000/svg"
     xmlns:xlink="http://www.w3.org/1999/xlink">
    <clipPath id="p.0">
        <path d="m0 0l37.795277 0l0 37.795277l-37.795277 0l0 -37.795277z" clip-rule="nonzero"></path>
    </clipPath>
    <g clip-path="url(#p.0)">
        <path fill="#000000" fill-opacity="0.0" d="m0 0l37.795277 0l0 37.795277l-37.795277 0z"
              fill-rule="evenodd"></path>
        <path fill="#ffffff"
              d="m17.009615 36.155907l0 0c-5.3906612 0.028865814 -10.362904 -2.9789658 -12.95122 -7.834511c-2.5883164 -4.855545 -2.376102 -10.777275 0.55275583 -15.4243555c2.9288578 -4.6470795 8.1029415 -7.271532 13.476957 -6.8359222l-0.44255257 5.756485c-3.2612505 -0.2733841 -6.4033756 1.3429365 -8.183309 4.209525c-1.7799335 2.8665886 -1.9109087 6.5216064 -0.34111023 9.519081c1.5697975 2.9974747 4.5874577 4.854479 7.8591547 4.836361z"
              fill-rule="evenodd"></path>
        <path stroke="#000000" stroke-width="2.0" stroke-linejoin="round" stroke-linecap="butt"
              d="m17.009615 36.155907l0 0c-5.3906612 0.028865814 -10.362904 -2.9789658 -12.95122 -7.834511c-2.5883164 -4.855545 -2.376102 -10.777275 0.55275583 -15.4243555c2.9288578 -4.6470795 8.1029415 -7.271532 13.476957 -6.8359222l-0.44255257 5.756485c-3.2612505 -0.2733841 -6.4033756 1.3429365 -8.183309 4.209525c-1.7799335 2.8665886 -1.9109087 6.5216064 -0.34111023 9.519081c1.5697975 2.9974747 4.5874577 4.854479 7.8591547 4.836361z"
              fill-rule="evenodd"></path>
        <path fill="#000000"
              d="m18.850103 15.453966l0 0c-2.7414875 0.3827381 -5.4548483 -0.8659868 -6.947316 -3.1972475c-1.4924679 -2.3312616 -1.4907522 -5.3181725 0.0043945312 -7.6477175c1.4951458 -2.3295445 4.209939 -3.5751505 6.950986 -3.1892622z"
              fill-rule="evenodd"></path>
        <path stroke="#ffffff" stroke-width="2.0" stroke-linejoin="round" stroke-linecap="butt"
              d="m18.850103 15.453966l0 0c-2.7414875 0.3827381 -5.4548483 -0.8659868 -6.947316 -3.1972475c-1.4924679 -2.3312616 -1.4907522 -5.3181725 0.0043945312 -7.6477175c1.4951458 -2.3295445 4.209939 -3.5751505 6.950986 -3.1892622z"
              fill-rule="evenodd"></path>
        <path fill="#ffffff"
              d="m20.786282 36.155907l0 0c5.3906612 0.028865814 10.362902 -2.9789658 12.951218 -7.834511c2.5883179 -4.855545 2.3761024 -10.777275 -0.55275345 -15.4243555c-2.9288597 -4.6470795 -8.102943 -7.271532 -13.476957 -6.8359222l0.44255066 5.756485c3.2612514 -0.2733841 6.4033756 1.3429365 8.18331 4.209525c1.7799339 2.8665886 1.9109097 6.5216064 0.34111023 9.519081c-1.5697975 2.9974747 -4.5874577 4.854479 -7.8591557 4.836361z"
              fill-rule="evenodd"></path>
        <path stroke="#000000" stroke-width="2.0" stroke-linejoin="round" stroke-linecap="butt"
              d="m20.786282 36.155907l0 0c5.3906612 0.028865814 10.362902 -2.9789658 12.951218 -7.834511c2.5883179 -4.855545 2.3761024 -10.777275 -0.55275345 -15.4243555c-2.9288597 -4.6470795 -8.102943 -7.271532 -13.476957 -6.8359222l0.44255066 5.756485c3.2612514 -0.2733841 6.4033756 1.3429365 8.18331 4.209525c1.7799339 2.8665886 1.9109097 6.5216064 0.34111023 9.519081c-1.5697975 2.9974747 -4.5874577 4.854479 -7.8591557 4.836361z"
              fill-rule="evenodd"></path>
        <path fill="#000000"
              d="m18.945793 15.453966l0 0c2.7414856 0.3827381 5.4548473 -0.8659868 6.947315 -3.1972475c1.4924679 -2.3312616 1.4907513 -5.3181725 -0.0043945312 -7.6477175c-1.4951458 -2.3295445 -4.20994 -3.5751505 -6.950985 -3.1892622z"
              fill-rule="evenodd"></path>
        <path stroke="#ffffff" stroke-width="2.0" stroke-linejoin="round" stroke-linecap="butt"
              d="m18.945793 15.453966l0 0c2.7414856 0.3827381 5.4548473 -0.8659868 6.947315 -3.1972475c1.4924679 -2.3312616 1.4907513 -5.3181725 -0.0043945312 -7.6477175c-1.4951458 -2.3295445 -4.20994 -3.5751505 -6.950985 -3.1892622z"
              fill-rule="evenodd"></path>
    </g>
</svg>

