<?xml version="1.0" standalone="yes"?>

<svg version="1.1" width="24" height="24" viewBox="0.0 0.0 37.79527559055118 37.79527559055118" fill="none"
     stroke="none" stroke-linecap="square" stroke-miterlimit="10" xmlns="http://www.w3.org/2000/svg"
     xmlns:xlink="http://www.w3.org/1999/xlink">
    <clipPath id="p.0">
        <path d="m0 0l37.795277 0l0 37.795277l-37.795277 0l0 -37.795277z" clip-rule="nonzero"></path>
    </clipPath>
    <g clip-path="url(#p.0)">
        <path fill="#000000" fill-opacity="0.0" d="m0 0l37.795277 0l0 37.795277l-37.795277 0z"
              fill-rule="evenodd"></path>
        <path fill="#ffffff"
              d="m17.009615 36.155907l0 0c-5.5589104 0.029766083 -10.657149 -3.1678162 -13.169395 -8.259758c-2.5122457 -5.0919437 -2.0073109 -11.204298 1.3043103 -15.788981l4.655135 3.5453215l0 0c-1.9622269 2.8114033 -2.2426324 6.5371284 -0.72509766 9.634306c1.5175352 3.0971794 4.574643 5.0385 7.9053383 5.0200424z"
              fill-rule="evenodd"></path>
        <path stroke="#000000" stroke-width="2.0" stroke-linejoin="round" stroke-linecap="butt"
              d="m17.009615 36.155907l0 0c-5.5589104 0.029766083 -10.657149 -3.1678162 -13.169395 -8.259758c-2.5122457 -5.0919437 -2.0073109 -11.204298 1.3043103 -15.788981l4.655135 3.5453215l0 0c-1.9622269 2.8114033 -2.2426324 6.5371284 -0.72509766 9.634306c1.5175352 3.0971794 4.574643 5.0385 7.9053383 5.0200424z"
              fill-rule="evenodd"></path>
        <path fill="#000000"
              d="m14.917764 16.557167l0 0c-1.6754646 2.2038574 -4.480877 3.2302818 -7.1830077 2.628065c-2.7021298 -0.6022148 -4.806179 -2.7227955 -5.387229 -5.429557c-0.58104944 -2.7067604 0.46729898 -5.504054 2.6842024 -7.162219z"
              fill-rule="evenodd"></path>
        <path stroke="#ffffff" stroke-width="2.0" stroke-linejoin="round" stroke-linecap="butt"
              d="m14.917764 16.557167l0 0c-1.6754646 2.2038574 -4.480877 3.2302818 -7.1830077 2.628065c-2.7021298 -0.6022148 -4.806179 -2.7227955 -5.387229 -5.429557c-0.58104944 -2.7067604 0.46729898 -5.504054 2.6842024 -7.162219z"
              fill-rule="evenodd"></path>
        <path fill="#ffffff"
              d="m20.66885 36.155907l0 0c5.5589104 0.029766083 10.657148 -3.1678162 13.169395 -8.259758c2.5122452 -5.0919437 2.007309 -11.204298 -1.3043098 -15.788981l-4.655136 3.5453215l0 0c1.9622269 2.8114033 2.242632 6.5371284 0.72509766 9.634306c-1.5175362 3.0971794 -4.574644 5.0385 -7.90534 5.0200424z"
              fill-rule="evenodd"></path>
        <path stroke="#000000" stroke-width="2.0" stroke-linejoin="round" stroke-linecap="butt"
              d="m20.66885 36.155907l0 0c5.5589104 0.029766083 10.657148 -3.1678162 13.169395 -8.259758c2.5122452 -5.0919437 2.007309 -11.204298 -1.3043098 -15.788981l-4.655136 3.5453215l0 0c1.9622269 2.8114033 2.242632 6.5371284 0.72509766 9.634306c-1.5175362 3.0971794 -4.574644 5.0385 -7.90534 5.0200424z"
              fill-rule="evenodd"></path>
        <path fill="#000000"
              d="m22.7607 16.557167l0 0c1.6754646 2.2038574 4.480877 3.2302818 7.183008 2.628065c2.7021313 -0.6022148 4.806177 -2.7227955 5.387228 -5.429557c0.5810509 -2.7067604 -0.4672966 -5.504054 -2.6842003 -7.162219z"
              fill-rule="evenodd"></path>
        <path stroke="#ffffff" stroke-width="2.0" stroke-linejoin="round" stroke-linecap="butt"
              d="m22.7607 16.557167l0 0c1.6754646 2.2038574 4.480877 3.2302818 7.183008 2.628065c2.7021313 -0.6022148 4.806177 -2.7227955 5.387228 -5.429557c0.5810509 -2.7067604 -0.4672966 -5.504054 -2.6842003 -7.162219z"
              fill-rule="evenodd"></path>
    </g>
</svg>

