<?xml version="1.0" encoding="UTF-8" standalone="no"?>
<svg
        version="1.1"
        width="24"
        height="24"
        viewBox="0.0 0.0 37.79527559055118 37.79527559055118"
        fill="none"
        stroke="none"
        stroke-linecap="square"
        stroke-miterlimit="0"
        id="svg13"
        xmlns="http://www.w3.org/2000/svg"
        xmlns:svg="http://www.w3.org/2000/svg">
    <defs
            id="defs17">
        <marker
                style="overflow:visible"
                id="TriangleOutL"
                refX="0.0"
                refY="0.0"
                orient="auto">
            <path
                    transform="scale(0.8)"
                    style="fill-rule:evenodd;fill:context-stroke;stroke:context-stroke;stroke-width:1.0pt"
                    d="M 5.77,0.0 L -2.88,5.0 L -2.88,-5.0 L 5.77,0.0 z "
                    id="path1898"/>
        </marker>
        <marker
                style="overflow:visible;"
                id="Arrow2Mend"
                refX="0.0"
                refY="0.0"
                orient="auto">
            <path
                    transform="scale(0.6) rotate(180) translate(0,0)"
                    d="M 8.7185878,4.0337352 L -2.2072895,0.016013256 L 8.7185884,-4.0017078 C 6.9730900,-1.6296469 6.9831476,1.6157441 8.7185878,4.0337352 z "
                    style="stroke:context-stroke;fill-rule:evenodd;fill:context-stroke;stroke-width:0.62500000;stroke-linejoin:round;"
                    id="path1783"/>
        </marker>
    </defs>
    <clipPath
            id="p.0">
        <path
                d="m0 0l37.795277 0l0 37.795277l-37.795277 0l0 -37.795277z"
                clip-rule="nonzero"
                id="path2"/>
    </clipPath>
    <path
            fill="#000000"
            fill-opacity="0"
            d="M 0.96611,37.238634 V -0.55664345 H 38.761387 V 37.238634 Z"
            fill-rule="evenodd"
            id="path5"/>
    <path
            style="color:#000000;fill:#ffffff;stroke:#000000;stroke-width:1.10236;stroke-linecap:round;stroke-linejoin:round;stroke-miterlimit:0;stroke-dasharray:none"
            d="m 12.051482,14.288141 h 3.068646 c 8.320199,0 14.999223,6.679024 14.999223,14.999223 v 3.067122 h 6.137292 v -3.067122 c 0,-11.636619 -9.499894,-21.1365164 -21.136515,-21.1365164 H 12.051482 V 3.1699502 L 1.5108731,11.049249 12.051482,18.928546 c 0,-1.546803 0,-3.093605 0,-4.640405 z"
            id="path858"/>
    <text
            xml:space="preserve"
            style="font-style:normal;font-weight:normal;font-size:18.8976px;line-height:1.25;font-family:sans-serif;letter-spacing:-2.15748px;fill:#000000;fill-opacity:1;stroke:none;stroke-width:1.5748"
            x="-0.18114823"
            y="35.677792"
            id="text7811"><tspan
       id="tspan7809"
       style="font-size:18.8976px;letter-spacing:-2.15748px;stroke-width:1.5748"
       x="-0.18114823"
       y="35.677792"><tspan
   style="font-size:18.8976px;letter-spacing:-1.5748px"
   id="tspan5193">9</tspan>0°</tspan></text>
</svg>
